<?xml version="1.0"?>
<svg xmlns="http://www.w3.org/2000/svg" viewBox="0 0 64 64" width="512" height="512"><g id="Filled_outline" data-name="Filled outline"><path d="M53,15c-6,0-5,2-11,2s-4-2-10-2-4,2-10,2-5-2-11-2v4c6,0,5,2,11,2s4-2,10-2,4,2,10,2,5-2,11-2Z" style="fill:#d3843d"/><path d="M45,33H61a0,0,0,0,1,0,0v4a4,4,0,0,1-4,4H49a4,4,0,0,1-4-4V33A0,0,0,0,1,45,33Z" style="fill:#f3bb59"/><path d="M3,33H19a0,0,0,0,1,0,0v4a4,4,0,0,1-4,4H7a4,4,0,0,1-4-4V33A0,0,0,0,1,3,33Z" style="fill:#f3bb59"/><polygon points="51 61 13 61 15 57 49 57 51 61" style="fill:#66342e"/><rect x="19" y="53" width="26" height="4" style="fill:#d3843d"/><rect x="30" y="8" width="4" height="45" style="fill:#66342e"/><path d="M60.132,33.5,53,21.016,45.868,33.5,44.132,32.5l8-14a1.04,1.04,0,0,1,1.736,0l8,14Z" style="fill:#f98c96"/><path d="M18.132,33.5,11,21.016,3.868,33.5,2.132,32.5l8-14a1.04,1.04,0,0,1,1.736,0l8,14Z" style="fill:#f98c96"/><rect x="3" y="36" width="5" height="2" style="fill:#d3843d"/><rect x="10" y="36" width="2" height="2" style="fill:#d3843d"/><rect x="56" y="36" width="2" height="2" style="fill:#d3843d"/><circle cx="32" cy="7" r="4" style="fill:#f3bb59"/><circle cx="53" cy="17" r="4" style="fill:#f3bb59"/><circle cx="11" cy="17" r="4" style="fill:#f3bb59"/><path d="M61.868,32.5l-6.39-11.187a4.984,4.984,0,1,0-6.793-6.8c-.588.172-1.08.365-1.554.554A11.56,11.56,0,0,1,42,16a8.373,8.373,0,0,1-4.551-.894A8.545,8.545,0,0,0,35,14.241V10.974a5,5,0,1,0-6,0v3.267a8.545,8.545,0,0,0-2.449.865A8.373,8.373,0,0,1,22,16a11.56,11.56,0,0,1-5.131-.927c-.474-.189-.966-.382-1.554-.554a4.984,4.984,0,1,0-6.793,6.8L2.132,32.5A1.773,1.773,0,0,0,2,33v4a5.006,5.006,0,0,0,5,5h8a5.006,5.006,0,0,0,5-5V33a1.773,1.773,0,0,0-.132-.5l-6.39-11.187a5,5,0,0,0,1.162-.912,13.956,13.956,0,0,1,1.492.527A13.429,13.429,0,0,0,22,22c3.235,0,4.359-.562,5.445-1.105A6.935,6.935,0,0,1,29,20.285V52H19a1,1,0,0,0-1,1v3H15a1,1,0,0,0-.895.553l-2,4A1,1,0,0,0,13,62H51a1,1,0,0,0,.9-1.447l-2-4A1,1,0,0,0,49,56H46V53a1,1,0,0,0-1-1H35V20.285a6.935,6.935,0,0,1,1.555.61C37.641,21.438,38.765,22,42,22a13.429,13.429,0,0,0,5.868-1.068,13.956,13.956,0,0,1,1.492-.527,5,5,0,0,0,1.162.912L44.132,32.5A1.773,1.773,0,0,0,44,33v4a5.006,5.006,0,0,0,5,5h8a5.006,5.006,0,0,0,5-5V33A1.773,1.773,0,0,0,61.868,32.5ZM18,37a3,3,0,0,1-3,3H7a3,3,0,0,1-2.816-2H8V36H4V34H18Zm-.723-5H4.723l5.743-10.054A4.952,4.952,0,0,0,11,22a4.952,4.952,0,0,0,.534-.054ZM11,20a3,3,0,1,1,3-3A3,3,0,0,1,11,20Zm15.551-.894A8.373,8.373,0,0,1,22,20a11.592,11.592,0,0,1-5.128-.926c-.368-.147-.748-.3-1.171-.435A4.93,4.93,0,0,0,16,17c0-.042-.011-.081-.012-.123.046.019.092.035.139.054A13.4,13.4,0,0,0,22,18c3.235,0,4.359-.562,5.445-1.105A6.935,6.935,0,0,1,29,16.285v1.956A8.545,8.545,0,0,0,26.551,19.106ZM48.382,58l1,2H14.618l1-2ZM44,54v2H20V54ZM31,52V11.9a5,5,0,0,0,2,0V52Zm1-42a3,3,0,1,1,3-3A3,3,0,0,1,32,10Zm15.128,9.074A11.592,11.592,0,0,1,42,20a8.373,8.373,0,0,1-4.551-.894A8.545,8.545,0,0,0,35,18.241V16.285a6.935,6.935,0,0,1,1.555.61C37.641,17.438,38.765,18,42,18a13.4,13.4,0,0,0,5.873-1.069c.047-.019.093-.035.139-.054,0,.042-.012.081-.012.123a4.93,4.93,0,0,0,.3,1.639C47.876,18.778,47.5,18.927,47.128,19.074ZM50,17a3,3,0,1,1,3,3A3,3,0,0,1,50,17Zm2.466,4.946a2.667,2.667,0,0,0,1.068,0L59.277,32H46.723ZM60,37a3,3,0,0,1-3,3H49a3,3,0,0,1-3-3V34H60Z"/><rect x="10" y="36" width="2" height="2"/><rect x="56" y="36" width="2" height="2"/></g></svg>
