<?xml version="1.0" encoding="iso-8859-1"?>
<!-- Generator: Adobe Illustrator 19.0.0, SVG Export Plug-In . SVG Version: 6.00 Build 0)  -->
<svg version="1.1" id="Layer_1" xmlns="http://www.w3.org/2000/svg" xmlns:xlink="http://www.w3.org/1999/xlink" x="0px" y="0px"
	 viewBox="0 0 511.999 511.999" style="enable-background:new 0 0 511.999 511.999;" xml:space="preserve">
<path style="fill:#B4E66E;" d="M254.131,281.712l-78.006-21.274h-71l-78.006,21.274C15.536,284.871,7.5,295.392,7.5,307.398v183.789
	h266.25V307.398C273.75,295.392,265.714,284.871,254.131,281.712z"/>
<g>
	<path style="fill:#A0D755;" d="M7.5,307.398v183.79h53.25V364.413c0-9.868-3.289-19.454-9.347-27.244L14.42,289.62
		C10.118,294.392,7.5,300.631,7.5,307.398z"/>
	<path style="fill:#A0D755;" d="M273.75,307.398v183.79H220.5V364.413c0-9.868,3.289-19.454,9.347-27.244l36.982-47.549
		C271.132,294.392,273.75,300.631,273.75,307.398z"/>
</g>
<rect x="96.25" y="224.94" style="fill:#FAD7A5;" width="88.75" height="71"/>
<path style="fill:#F0C891;" d="M96.25,260.438c0,0.001,0,0.003,0,0.004c13.664,5.7,28.647,8.871,44.375,8.871
	s30.711-3.172,44.375-8.871c0-0.001,0-0.003,0-0.004v-31.063H96.25V260.438z"/>
<path style="fill:#E6AF78;" d="M487.763,342.493l-60.856-24.342c-6.739-2.696-11.158-9.222-11.158-16.48v-32.358h-71v32.358
	c0,7.258-4.419,13.785-11.158,16.48l-60.856,24.342C262.628,346.536,256,356.326,256,367.213v35.224
	c0,4.902,3.973,8.875,8.875,8.875l0,0v79.875h230.75v-79.875l0,0c4.902,0,8.875-3.973,8.875-8.875v-35.224
	C504.5,356.326,497.872,346.536,487.763,342.493z"/>
<path style="fill:#D29B6E;" d="M380.25,313.688c12.81,0,25.035-2.378,36.41-6.523c-0.572-1.749-0.91-3.589-0.91-5.494v-32.358h-71
	v32.358c0,1.906-0.338,3.745-0.91,5.494C355.215,311.309,367.44,313.688,380.25,313.688z"/>
<path style="fill:#FFDC64;" d="M487.764,342.493l-50.436-20.175c-8.41,13.245-27.395,38.653-57.078,53.494
	c-29.682-14.841-48.668-40.249-57.078-53.494l-50.436,20.175C262.628,346.536,256,356.326,256,367.213v44.099h44.375v79.875h159.75
	v-79.875H504.5v-44.099C504.5,356.326,497.872,346.536,487.764,342.493z"/>
<g>
	<path style="fill:#FFC850;" d="M300.375,400.915c0-4.708-1.87-9.222-5.199-12.551l-35.138-35.138
		c-2.553,4.123-4.038,8.922-4.038,13.988v44.099h44.375V400.915z"/>
	<path style="fill:#FFC850;" d="M460.125,400.915c0-4.708,1.87-9.222,5.199-12.551l35.138-35.138
		c2.553,4.123,4.038,8.922,4.038,13.988v44.099h-44.375V400.915z"/>
</g>
<g>
	<path style="fill:#C8FF82;" d="M87.375,251.563l53.25,44.375l-28.618,21.464c-3.835,2.876-9.261,2.187-12.255-1.556l-26.072-32.59
		c-2.414-3.018-2.598-7.251-0.454-10.467L87.375,251.563z"/>
	<path style="fill:#C8FF82;" d="M193.875,251.563l-53.25,44.375l28.618,21.464c3.835,2.876,9.261,2.187,12.255-1.556l26.072-32.59
		c2.414-3.018,2.598-7.251,0.454-10.467L193.875,251.563z"/>
</g>
<path style="fill:#FFE1B4;" d="M220.5,127.313v-53.25H60.75v53.25c-9.803,0-17.75,7.947-17.75,17.75s7.947,17.75,17.75,17.75
	c0,44.114,35.761,79.875,79.875,79.875s79.875-35.761,79.875-79.875c9.803,0,17.75-7.947,17.75-17.75
	C238.25,135.259,230.303,127.313,220.5,127.313z"/>
<path style="fill:#FAD7A5;" d="M105.125,162.813v-88.75H60.75v53.25c-9.803,0-17.75,7.947-17.75,17.75s7.947,17.75,17.75,17.75
	c0,44.114,35.761,79.875,79.875,79.875c7.708,0,15.136-1.151,22.188-3.188C129.506,229.876,105.125,199.219,105.125,162.813z"/>
<path style="fill:#D59F63;" d="M200.367,118.865c2.592,6.864,9.929,9.973,17.155,8.706c0.966-0.169,1.961-0.258,2.978-0.258
	c3.25,0,6.255,0.937,8.875,2.462V74.063c0-13.278-7.376-24.717-18.171-30.805C209.186,30.552,198.273,20.813,185,20.813h-71
	c-34.311,0-62.125,27.814-62.125,62.125v46.837c2.62-1.525,5.625-2.462,8.875-2.462h10.474c4.231,0,7.873-2.986,8.703-7.134
	l5.43-27.152c1.018-5.088,6.098-8.177,11.095-6.781c23.954,6.691,72.34,9.233,97.422-3.308l5.167,31.003
	C199.327,115.651,199.775,117.297,200.367,118.865z"/>
<path style="fill:#CD915A;" d="M114,20.813c-34.31,0-62.125,27.814-62.125,62.125v46.837c2.62-1.525,5.625-2.462,8.875-2.462h10.474
	c4.231,0,7.874-2.986,8.703-7.135l5.431-27.152c1.017-5.088,6.097-8.176,11.095-6.78c2.608,0.728,5.548,1.395,8.672,2.011V74.063
	c0-29.409,23.841-53.25,53.25-53.25C158.375,20.813,114,20.813,114,20.813z"/>
<path style="fill:#785546;" d="M422.694,66.118c1.132-3.134,1.931-6.379,1.931-9.805c0-19.606-19.867-35.5-44.375-35.5
	s-44.375,15.894-44.375,35.5c0,3.542,0.845,6.894,2.052,10.121c-32.915,16.547-55.302,51.569-55.302,90.741v23.388
	c44.375-17.75,62.125-44.375,62.125-44.375c44.375,35.5,115.375,8.875,115.375,71l2.981-4.472
	c9.629-14.445,14.769-31.418,14.769-48.778C477.875,115.253,455.321,81.919,422.694,66.118z"/>
<path style="fill:#64463C;" d="M394.756,57.503c-5.328-0.796-10.76-1.275-16.333-1.173c-5.415,0.099-10.669,0.771-15.815,1.748
	c-0.03-0.59-0.108-1.167-0.108-1.765c0-14.459,7.642-27.264,19.416-35.366c-0.566-0.017-1.095-0.134-1.666-0.134
	c-24.508,0-44.375,15.894-44.375,35.5c0,3.55,0.717,6.953,1.941,10.179c-32.854,16.57-55.191,51.556-55.191,90.683v23.388
	c44.375-17.75,62.125-44.375,62.125-44.375v-17.75c0-30.169,21.511-55.295,50.027-60.927
	C394.769,57.509,394.763,57.504,394.756,57.503z"/>
<path style="fill:#F0C087;" d="M460.125,207.188c0-58.759-63.516-38.124-107.944-65.753c-4.045-2.516-9.432-1.428-12.064,2.543
	c-6.855,10.343-20.886,27.358-39.174,27.705c-10.005,0.19-18.318,7.609-18.318,17.615v0.141c0,9.803,7.947,17.75,17.75,17.75
	c0,6.101,0.684,12.043,1.98,17.752c8.072,35.57,39.883,62.123,77.895,62.123s69.823-26.553,77.895-62.123
	C459.441,219.23,460.125,213.289,460.125,207.188z"/>
<path style="fill:#E6AF78;" d="M344.75,207.188v-66.554c-1.822,0.585-3.503,1.638-4.633,3.343
	c-6.856,10.344-20.886,27.358-39.174,27.706c-10.005,0.19-18.318,7.609-18.318,17.615v0.141c0,9.803,7.947,17.75,17.75,17.75
	c0,6.101,0.684,12.042,1.98,17.752c8.072,35.57,39.882,62.123,77.895,62.123c7.714,0,15.15-1.143,22.207-3.184
	C369.14,274.263,344.75,243.601,344.75,207.188z"/>
<path d="M140.625,205.813c8.977,0,17.569-4.247,23.575-11.65c2.609-3.217,2.117-7.94-1.1-10.549c-3.217-2.61-7.94-2.117-10.549,1.1
	c-3.19,3.934-7.425,6.1-11.925,6.1s-8.735-2.166-11.925-6.1c-2.608-3.217-7.332-3.709-10.549-1.1
	c-3.217,2.609-3.709,7.332-1.1,10.549C123.056,201.566,131.648,205.813,140.625,205.813z"/>
<path d="M105.125,161.438c4.142,0,7.5-3.358,7.5-7.5v-8.875c0-4.142-3.358-7.5-7.5-7.5s-7.5,3.358-7.5,7.5v8.875
	C97.625,158.08,100.983,161.438,105.125,161.438z"/>
<path d="M176.125,161.438c4.142,0,7.5-3.358,7.5-7.5v-8.875c0-4.142-3.358-7.5-7.5-7.5s-7.5,3.358-7.5,7.5v8.875
	C168.625,158.08,171.983,161.438,176.125,161.438z"/>
<path d="M49.708,310.333c-1.852-3.705-6.357-5.207-10.062-3.354c-3.705,1.852-5.207,6.357-3.354,10.062l16.958,33.917v140.229
	c0,4.142,3.358,7.5,7.5,7.5s7.5-3.358,7.5-7.5v-142c0-1.165-0.271-2.313-0.792-3.354L49.708,310.333z"/>
<path d="M241.604,306.979c-3.705-1.853-8.21-0.351-10.062,3.354l-17.75,35.5c-0.521,1.042-0.792,2.189-0.792,3.354v142
	c0,4.142,3.358,7.5,7.5,7.5s7.5-3.358,7.5-7.5V350.958l16.958-33.917C246.811,313.337,245.309,308.832,241.604,306.979z"/>
<path d="M403.825,238.537c2.609-3.217,2.117-7.94-1.1-10.549c-3.217-2.61-7.94-2.117-10.549,1.1c-3.19,3.934-7.425,6.1-11.925,6.1
	s-8.735-2.166-11.925-6.1c-2.608-3.217-7.332-3.709-10.549-1.1s-3.709,7.332-1.1,10.549c6.005,7.404,14.598,11.65,23.575,11.65
	S397.819,245.941,403.825,238.537z"/>
<path d="M344.75,181.938c-4.142,0-7.5,3.358-7.5,7.5v8.875c0,4.142,3.358,7.5,7.5,7.5s7.5-3.358,7.5-7.5v-8.875
	C352.25,185.295,348.892,181.938,344.75,181.938z"/>
<path d="M415.75,205.813c4.142,0,7.5-3.358,7.5-7.5v-8.875c0-4.142-3.358-7.5-7.5-7.5s-7.5,3.358-7.5,7.5v8.875
	C408.25,202.455,411.608,205.813,415.75,205.813z"/>
<path d="M490.549,335.529l-60.856-24.343c-3.914-1.565-6.443-5.301-6.443-9.517v-18.433c4.164-2.35,8.147-5.039,11.89-8.065
	c15.239-12.317,26.006-29.568,30.319-48.573c1.437-6.333,2.166-12.864,2.166-19.412c0-43.685-31.643-49.967-62.243-56.042
	c-19.57-3.885-39.806-7.903-55.947-20.815c-1.766-1.413-4.078-1.949-6.286-1.466c-2.209,0.482-4.085,1.939-5.103,3.959
	c-0.042,0.083-4.244,8.355-11.351,16.41c-6.019,6.822-15.472,14.954-26.321,14.954c-3.648,0-7.115,0.784-10.25,2.183v-12.433
	c0-49.695,40.43-90.125,90.125-90.125s90.125,40.43,90.125,90.125v17.75c0,4.142,3.358,7.5,7.5,7.5s7.5-3.358,7.5-7.5v-17.75
	c0-39.318-21.7-73.657-53.75-91.687c0.325-1.962,0.5-3.946,0.5-5.938c0-23.71-23.271-43-51.875-43s-51.875,19.29-51.875,43
	c0,1.993,0.173,3.977,0.499,5.939c-32.049,18.03-53.749,52.369-53.749,91.686v35.5c0,11.398,7.592,21.057,17.985,24.185
	c0.32,4.378,0.965,8.722,1.931,12.977c4.313,19.005,15.081,36.256,30.319,48.573c3.743,3.026,7.726,5.715,11.89,8.065v18.433
	c0,4.216-2.529,7.951-6.443,9.517l-60.855,24.342c-13.031,5.212-21.451,17.649-21.451,31.684v44.104c0,1.99,0.791,3.898,2.198,5.305
	c1.406,1.406,3.313,2.195,5.302,2.195c0.001,0,0.002,0,0.004,0h1.371v72.371c0,4.142,3.358,7.5,7.5,7.5s7.5-3.358,7.5-7.5v-72.375
	h20.5v72.375c0,4.142,3.358,7.5,7.5,7.5s7.5-3.358,7.5-7.5v-97.625c0-4.142-3.358-7.5-7.5-7.5s-7.5,3.358-7.5,7.5v10.25h-28
	c-0.001,0-0.002,0-0.004,0H263.5v-36.6c0-7.866,4.719-14.836,12.022-17.757l47.326-18.93c6.282,10.646,24.113,37.028,54.047,51.995
	c1.056,0.528,2.205,0.792,3.354,0.792s2.298-0.264,3.354-0.792c29.934-14.967,47.766-41.349,54.047-51.995l47.327,18.931
	c7.303,2.921,12.022,9.892,12.022,17.757v36.6h-1.375h-28v-10.25c0-4.142-3.358-7.5-7.5-7.5s-7.5,3.358-7.5,7.5v97.625
	c0,4.142,3.358,7.5,7.5,7.5s7.5-3.358,7.5-7.5v-72.375h20.5v72.375c0,4.142,3.358,7.5,7.5,7.5s7.5-3.358,7.5-7.5v-72.375h1.375
	c4.142,0,7.5-3.358,7.5-7.5v-44.1C512,353.179,503.58,340.742,490.549,335.529z M380.25,28.313
	c19.967,0,36.266,12.114,36.847,27.171c-11.473-4.308-23.888-6.671-36.847-6.671s-25.375,2.363-36.847,6.671
	C343.984,40.427,360.283,28.313,380.25,28.313z M309.668,223.28c-1.19-5.245-1.793-10.66-1.793-16.092c0-4.142-3.358-7.5-7.5-7.5
	c-5.652,0-10.25-4.598-10.25-10.25s4.598-10.25,10.25-10.25c22.743,0,39.239-20.594,46.688-32.116
	c17.491,11.261,37.496,15.233,55.398,18.788c32.963,6.544,50.164,11.354,50.164,41.329c0,5.433-0.604,10.847-1.793,16.092
	c-3.57,15.733-12.492,30.019-25.121,40.227c-12.995,10.504-28.715,16.056-45.461,16.056s-32.466-5.552-45.461-16.056
	C322.16,253.299,313.239,239.013,309.668,223.28z M380.25,367.34c-22.628-12.499-37.183-32.724-43.272-42.492
	c9.294-3.995,15.272-13.013,15.272-23.178v-11.745c8.97,3.034,18.432,4.638,28,4.638s19.03-1.604,28-4.638v11.745
	c0,10.165,5.978,19.182,15.272,23.177C417.43,334.62,402.875,354.843,380.25,367.34z"/>
<path d="M219.118,278.503l33.502,10.051c8.152,2.446,13.63,9.808,13.63,18.319c0,4.142,3.358,7.5,7.5,7.5s7.5-3.358,7.5-7.5
	c0-15.187-9.773-28.322-24.319-32.686l-48.699-14.609l-8.117-12.175c-1.18-1.771-3.058-2.957-5.164-3.262
	c-0.824-0.12-1.651-0.096-2.452,0.053v-11.141c19.895-14.732,33.355-37.684,35.266-63.805c10.392-3.128,17.984-12.787,17.984-24.185
	c0-7.378-3.316-14.371-8.875-19.125V74.063c0-14.222-7.203-27.525-19.008-35.497C213.921,23.738,200.621,13.313,185,13.313h-71
	c-38.392,0-69.625,31.233-69.625,69.625v43c-5.559,4.754-8.875,11.746-8.875,19.125c0,11.398,7.592,21.057,17.984,24.185
	c1.911,26.121,15.37,49.073,35.266,63.805v11.14c-0.801-0.15-1.628-0.174-2.452-0.053c-2.106,0.306-3.983,1.491-5.164,3.262
	l-8.117,12.175l-48.699,14.609C9.773,278.551,0,291.686,0,306.873v184.315c0,4.142,3.358,7.5,7.5,7.5s7.5-3.358,7.5-7.5V306.873
	c0-8.511,5.478-15.873,13.63-18.319l33.502-10.051c0.065,1.556,0.614,3.092,1.636,4.369l30.126,37.658
	c3.245,4.056,7.977,6.173,12.771,6.173c3.421,0,6.875-1.079,9.84-3.303l16.619-12.464v180.25c0,4.142,3.358,7.5,7.5,7.5
	s7.5-3.358,7.5-7.5v-180.25l16.619,12.464c2.965,2.224,6.418,3.303,9.84,3.303c4.794,0,9.527-2.118,12.771-6.173l30.126-37.658
	C218.504,281.595,219.052,280.059,219.118,278.503z M68.25,162.813c0-4.142-3.358-7.5-7.5-7.5c-5.652,0-10.25-4.598-10.25-10.25
	c0-3.638,1.924-6.93,5.147-8.806c0.166-0.097,0.317-0.211,0.474-0.319c1.427-0.725,3.01-1.125,4.629-1.125h10.474
	c7.779,0,14.532-5.536,16.057-13.163l5.457-27.282c0.076-0.381,0.275-0.671,0.59-0.862c0.248-0.15,0.659-0.293,1.209-0.132
	c13.322,3.886,29.259,5.939,46.088,5.939c21.596,0,41.533-3.357,56.139-9.454c3.822-1.596,5.627-5.988,4.032-9.811
	c-1.596-3.822-5.987-5.626-9.811-4.032c-12.631,5.272-30.987,8.296-50.361,8.296c-15.207,0-30.083-1.896-41.887-5.339
	c-4.449-1.297-9.254-0.677-13.183,1.704c-3.888,2.356-6.631,6.274-7.526,10.75l-5.457,27.281c-0.128,0.64-0.695,1.105-1.348,1.105
	H60.75c-0.459,0-0.917,0.02-1.375,0.045v-36.92c0-30.12,24.505-54.625,54.625-54.625h71c9.408,0,17.313,6.78,18.796,16.121
	c0.359,2.26,1.73,4.233,3.723,5.357c8.855,4.994,14.355,14.294,14.355,24.272v55.712c0,2.67,1.42,5.139,3.728,6.482
	c3.223,1.876,5.147,5.168,5.147,8.806c0,5.652-4.598,10.25-10.25,10.25c-4.142,0-7.5,3.358-7.5,7.5
	c0,39.908-32.467,72.375-72.375,72.375S68.25,202.72,68.25,162.813z M140.625,250.188c13.171,0,25.664-2.94,36.875-8.182v13.44
	l-36.875,30.729l-36.875-30.729v-13.44C114.961,247.247,127.454,250.188,140.625,250.188z M107.506,311.401
	c-0.598,0.449-1.431,0.342-1.898-0.241l-26.701-33.376l10.078-15.117l39.553,32.96L107.506,311.401z M175.642,311.16
	c-0.467,0.584-1.3,0.689-1.898,0.241l-21.032-15.773l39.553-32.96l10.078,15.117L175.642,311.16z"/>
<path d="M114.089,368.313H114c-4.142,0-7.456,3.358-7.456,7.5s3.402,7.5,7.544,7.5s7.5-3.358,7.5-7.5
	S118.231,368.313,114.089,368.313z"/>
<path d="M114.089,439.313H114c-4.142,0-7.456,3.358-7.456,7.5s3.402,7.5,7.544,7.5s7.5-3.358,7.5-7.5
	S118.231,439.313,114.089,439.313z"/>
<path d="M114.089,403.813H114c-4.142,0-7.456,3.358-7.456,7.5s3.402,7.5,7.544,7.5s7.5-3.358,7.5-7.5
	S118.231,403.813,114.089,403.813z"/>
<g>
</g>
<g>
</g>
<g>
</g>
<g>
</g>
<g>
</g>
<g>
</g>
<g>
</g>
<g>
</g>
<g>
</g>
<g>
</g>
<g>
</g>
<g>
</g>
<g>
</g>
<g>
</g>
<g>
</g>
</svg>
