<?xml version="1.0" encoding="iso-8859-1"?>
<!-- Generator: Adobe Illustrator 19.0.0, SVG Export Plug-In . SVG Version: 6.00 Build 0)  -->
<svg version="1.1" id="Capa_1" xmlns="http://www.w3.org/2000/svg" xmlns:xlink="http://www.w3.org/1999/xlink" x="0px" y="0px"
	 viewBox="0 0 511.998 511.998" style="enable-background:new 0 0 511.998 511.998;" xml:space="preserve">
<circle style="fill:#BEF7F0;" cx="209.984" cy="255.989" r="199.984"/>
<g>
	<path style="fill:#A3ED5C;" d="M385.479,351.94l-69.41-1.5c-29.574-6.917-59.86,8.319-71.932,36.189l-29.083,69.277
		C288.593,454.076,352.272,412.545,385.479,351.94z"/>
	<path style="fill:#A3ED5C;" d="M9.999,255.986c0,92.669,63.034,170.604,148.561,193.298l-14.248-47.514
		c-10.944-36.498,6.143-75.554,40.377-92.286l10.05-4.913c13.38-6.54,18.369-23.081,10.835-35.928l0,0
		c-4.593-7.832-12.992-12.644-22.071-12.644h-23.866c-24.078,0-38.048-27.255-23.989-46.802l21.569-29.99
		c7.865-10.936,7.338-25.808-1.281-36.16l-48.791-58.601C48.946,119.41,9.999,183.146,9.999,255.986z"/>
</g>
<g>
	<path style="fill:#59AA33;" d="M352.791,10.018c-0.415,0.334-49.118,40.842-55.112,102.59c-0.4,4.117-0.609,8.327-0.602,12.627
		c0.113,68.796,56.009,64.114,56.009,64.114s55.912,4.866,55.798-63.93c-0.007-4.3-0.232-8.512-0.649-12.633
		C401.993,50.98,352.791,10.018,352.791,10.018z"/>
	<path style="fill:#59AA33;" d="M246.238,264.844c48.566,48.726,84.66,5.75,84.66,5.75s42.835-36.213-5.732-84.939
		S204.865,143.518,204.3,143.579C204.3,143.58,197.672,216.119,246.238,264.844z"/>
	<path style="fill:#59AA33;" d="M501.668,143.58c-0.565-0.061-72.3-6.65-120.867,42.076s-5.732,84.939-5.732,84.939
		s36.094,42.977,84.66-5.75S501.668,143.58,501.668,143.58z"/>
</g>
<path d="M297.078,135.234c0.005,0,0.011,0,0.016,0c5.523-0.009,9.992-4.493,9.983-10.015c-0.006-3.863,0.181-7.781,0.556-11.645
	c0.419-4.318,1.074-8.524,1.914-12.62l32.079,32.079c0.422,0.422,0.878,0.79,1.351,1.121v24.353c0,5.523,4.478,9.999,9.999,9.999
	s9.999-4.477,9.999-9.999v-51.62l26.951-26.951c4.063,10.328,7.132,21.679,8.362,33.858c0.391,3.856,0.592,7.773,0.599,11.645
	c0.01,5.517,4.485,9.981,9.999,9.981c0.006,0,0.012,0,0.019,0c5.522-0.01,9.99-4.495,9.98-10.017
	c-0.008-4.529-0.244-9.111-0.7-13.62C411.607,46.658,361.326,4.113,359.19,2.334c-3.661-3.048-8.964-3.09-12.672-0.101
	c-0.523,0.421-52.334,42.884-58.79,109.41c-0.438,4.515-0.656,9.093-0.649,13.609C287.087,130.769,291.562,135.234,297.078,135.234z
	 M380.772,60.804l-17.8,17.8V35.05C368.638,41.887,374.996,50.579,380.772,60.804z M342.975,34.516v68.009
	c-0.003,0.154-0.003,0.306,0,0.46v3.116l-26.926-26.926C323.442,60.395,334.11,45.129,342.975,34.516z"/>
<path d="M501.97,491.98h-0.116c-5.522,0-9.999,4.478-9.999,9.999c0,5.522,4.478,9.999,9.999,9.999h0.116
	c5.522,0,9.999-4.478,9.999-9.999C511.969,496.458,507.491,491.98,501.97,491.98z"/>
<path d="M469.305,491.98H362.981v-36.56l14.737-14.737c3.905-3.905,3.905-10.235,0-14.142c-3.905-3.902-10.234-3.904-14.142,0
	l-0.596,0.596v-27.344c20.302-21.585,35.538-46.639,45.274-74.495c1.823-5.214-0.926-10.916-6.14-12.738
	c-5.215-1.824-10.917,0.927-12.738,6.14c-6.299,18.02-15.152,34.74-26.397,49.952V296.89l12.393-12.434
	c7.366,5.782,19.533,12.923,35.264,13.593c0.815,0.034,1.629,0.052,2.443,0.052c18.332,0,36.396-8.804,53.732-26.196
	c51.277-51.447,45.1-126.082,44.813-129.235c-0.435-4.745-4.156-8.525-8.894-9.032c-0.762-0.082-76.685-7.541-129.013,44.959
	c-9.51,9.541-16.416,19.302-20.735,29.205c-4.319-9.901-11.224-19.663-20.734-29.205c-52.327-52.499-128.253-45.041-129.013-44.959
	c-4.738,0.507-8.459,4.288-8.894,9.032c-0.287,3.152-6.464,77.788,44.813,129.235c17.336,17.394,35.398,26.196,53.731,26.196
	c0.813,0,1.629-0.018,2.443-0.052c15.732-0.671,27.899-7.812,35.264-13.594l12.388,12.429v88.634l-6.598-6.598
	c-3.906-3.904-10.235-3.904-14.142,0c-3.905,3.905-3.905,10.236,0,14.142l20.739,20.739v37.471c0,0.003,0,0.007,0,0.01v40.698
	H10.003c-5.522,0-9.999,4.478-9.999,9.999c0,5.522,4.478,9.999,9.999,9.999H469.3c5.522,0,9.999-4.478,9.999-9.999
	C479.3,496.457,474.827,491.98,469.305,491.98z M405.636,178.085c24.786-16.736,52.457-22.347,71.53-24.089l-71.53,71.766V178.085z
	 M482.97,207.568h-30.964l39.166-39.295C490.15,179.279,487.862,193.099,482.97,207.568z M452.649,257.786
	c-13.903,13.949-27.677,20.768-40.942,20.29c-9.334-0.342-16.983-4.313-22.076-7.924l42.445-42.585h42.433
	C469.058,238.102,461.952,248.451,452.649,257.786z M385.638,195.041v50.786l-10.123,10.157c-3.564-5.071-7.463-12.653-7.858-21.913
	C367.115,221.409,373.169,208.29,385.638,195.041z M338.322,233.85c-0.342,9.35-4.28,17.015-7.873,22.129l-10.118-10.152V195.04
	C332.726,208.212,338.782,221.257,338.322,233.85z M228.801,153.997c19.074,1.743,46.745,7.353,71.529,24.088v47.677
	L228.801,153.997z M214.794,168.273l39.166,39.295h-30.963C218.106,193.098,215.818,179.278,214.794,168.273z M294.478,278.067
	c-13.34,0.566-27.18-6.257-41.158-20.281c-9.303-9.334-16.411-19.683-21.859-30.22h42.432l29.365,29.462
	c0.001,0.001,0.003,0.003,0.004,0.004l13.081,13.124C311.293,273.739,303.725,277.673,294.478,278.067z"/>
<path d="M266.36,74.502l0.213,0.066c0.978,0.3,1.966,0.443,2.938,0.443c4.277,0,8.235-2.766,9.556-7.066
	c1.621-5.28-1.345-10.873-6.624-12.494l-0.117-0.037c-5.265-1.646-10.879,1.291-12.526,6.561S261.089,72.855,266.36,74.502z"/>
<path d="M155.206,458.707c0.492,0.176,0.997,0.313,1.514,0.411c17.017,4.466,34.865,6.852,53.264,6.852
	c37.38,0,74.086-9.948,106.151-28.769c4.763-2.796,6.357-8.922,3.562-13.686s-8.921-6.358-13.686-3.562
	c-23.311,13.684-49.345,22.169-76.231,24.975l23.532-54.326c10.159-23.451,35.601-36.246,60.479-30.427l10.501,2.457
	c5.377,1.254,10.756-2.081,12.015-7.458c1.258-5.378-2.082-10.756-7.458-12.015l-10.502-2.457
	c-34.317-8.025-69.38,9.617-83.385,41.951l-27.414,63.285c-14.102-0.178-27.839-1.892-41.049-4.997l-12.608-42.046
	c-9.582-31.954,5.218-65.781,35.188-80.432l10.051-4.912c8.87-4.336,15.593-12.244,18.443-21.696
	c2.851-9.451,1.622-19.757-3.373-28.274c-6.36-10.846-18.123-17.585-30.696-17.585h-23.866c-7.48,0-13.985-3.975-17.397-10.632
	c-3.413-6.657-2.843-14.259,1.525-20.332l21.569-29.991c10.528-14.638,9.823-34.539-1.714-48.396L122.57,87.342
	c26.183-13.626,55.913-21.341,87.413-21.341c5.945,0,11.947,0.278,17.842,0.826c5.482,0.509,10.37-3.532,10.882-9.03
	c0.512-5.499-3.532-10.371-9.03-10.882c-6.507-0.605-13.132-0.912-19.692-0.912c-38.983,0-75.511,10.691-106.83,29.276
	c-0.734,0.32-1.437,0.737-2.098,1.246C40.513,113.408,0,180.055,0,255.986C0,352.825,65.901,434.55,155.206,458.707z
	 M105.124,97.641l43.13,51.802c5.703,6.85,6.052,16.688,0.847,23.924l-21.569,29.991c-8.705,12.103-9.888,27.864-3.088,41.132
	c6.8,13.267,20.286,21.508,35.194,21.508h23.867c5.508,0,10.659,2.951,13.445,7.702c2.22,3.785,2.744,8.183,1.478,12.384
	c-1.268,4.201-4.137,7.576-8.078,9.503l-10.051,4.912c-38.808,18.97-57.97,62.767-45.563,104.142l8.794,29.327
	c-72.08-27.002-123.53-96.591-123.53-177.982C19.998,189.959,53.861,131.703,105.124,97.641z"/>
<g>
</g>
<g>
</g>
<g>
</g>
<g>
</g>
<g>
</g>
<g>
</g>
<g>
</g>
<g>
</g>
<g>
</g>
<g>
</g>
<g>
</g>
<g>
</g>
<g>
</g>
<g>
</g>
<g>
</g>
</svg>
